<?xml version="1.0" encoding="utf-8"?>
<!-- Generator: Adobe Illustrator 16.0.0, SVG Export Plug-In . SVG Version: 6.00 Build 0)  -->
<!DOCTYPE svg PUBLIC "-//W3C//DTD SVG 1.1//EN" "http://www.w3.org/Graphics/SVG/1.1/DTD/svg11.dtd">
<svg version="1.1" id="Layer_1" xmlns="http://www.w3.org/2000/svg" xmlns:xlink="http://www.w3.org/1999/xlink" x="0px" y="0px"
	 width="66px" height="74px" viewBox="0 0 66 74" enable-background="new 0 0 66 74" xml:space="preserve">
<path fill="#BBD27F" d="M5.795,16.402v48.362h19.011v-4.317h3.387V16.402H5.795z M14.672,57.734H8.744v-5.797h5.929V57.734z
	 M14.672,47.663H8.744v-5.794h5.929V47.663z M14.672,37.633H8.744v-5.794h5.929V37.633z M14.672,27.604H8.744v-5.795h5.929V27.604z
	 M25.778,57.734h-5.93v-5.797h5.93V57.734z M25.778,47.663h-5.93v-5.794h5.93V47.663z M25.778,37.633h-5.93v-5.794h5.93V37.633z
	 M25.778,27.604h-5.93v-5.795h5.93V27.604z"/>
<path fill="#276030" d="M60.131,63.502V10.358H30.265v53.144h-3.641v4.871h37.083v-4.871H60.131z M49.244,65.266H41.09v-6.649h8.154
	V65.266z M56.928,55.504H32.836V52.68h24.091V55.504z M56.928,50.486H32.836v-2.823h24.091V50.486z M56.928,45.473H32.836v-2.823
	h24.091V45.473z M56.928,40.457H32.836v-2.824h24.091V40.457z M56.928,35.441H32.836v-2.823h24.091V35.441z M56.928,30.427H32.836
	v-2.823h24.091V30.427z M56.928,25.413H32.836V22.59h24.091V25.413z M56.928,20.398H32.836v-2.824h24.091V20.398z"/>
</svg>
