<?xml version="1.0" encoding="utf-8"?>
<!-- Generator: Adobe Illustrator 16.0.0, SVG Export Plug-In . SVG Version: 6.00 Build 0)  -->
<!DOCTYPE svg PUBLIC "-//W3C//DTD SVG 1.1//EN" "http://www.w3.org/Graphics/SVG/1.1/DTD/svg11.dtd">
<svg version="1.1" id="Layer_1" xmlns="http://www.w3.org/2000/svg" xmlns:xlink="http://www.w3.org/1999/xlink" x="0px" y="0px"
	 width="136.553px" height="100.764px" viewBox="-49.447 0 136.553 100.764" enable-background="new -49.447 0 136.553 100.764"
	 xml:space="preserve">
<g opacity="0.5">
	<g>
		<g>
			<defs>
				<rect id="SVGID_1_" x="12.563" y="0" width="74.543" height="100.764"/>
			</defs>
			<clipPath id="SVGID_2_">
				<use xlink:href="#SVGID_1_"  overflow="visible"/>
			</clipPath>
			<path clip-path="url(#SVGID_2_)" fill="#BBD27F" d="M12.563,93.162l6.367-13.28C15.478,53.475,21.276,19.208,87.104,0
				c-17.037,14.734-18.942,33.18-25.382,46.028c-6.44,12.851-16.65,23.741-30.092,24.103c-3.229-8.201,0.457-21.445,3.266-25.887
				c-9.935,8.854-8.232,15.39-6.884,30.793c-5.396,6.635-14.2,25.731-14.2,25.731L12.563,93.162z"/>
		</g>
	</g>
</g>
<g opacity="0.5">
	<g>
		<g>
			<defs>
				<rect id="SVGID_3_" x="0" y="8.731" width="25.125" height="69.875"/>
			</defs>
			<clipPath id="SVGID_4_">
				<use xlink:href="#SVGID_3_"  overflow="visible"/>
			</clipPath>
			<path clip-path="url(#SVGID_4_)" fill="#BBD27F" d="M4.681,74.763l0.619-8.51C-2.16,52.744-6.298,33.042,25.125,8.727
				c-6.063,11.558-3.183,21.906-3.93,30.199c-0.75,8.295-3.944,16.332-11.115,19.379c-3.48-3.74-4.303-11.664-3.729-14.654
				c-3.479,6.88-1.176,10.044,2.815,18.065c-1.504,4.72-2.203,16.885-2.203,16.885L4.681,74.763z"/>
		</g>
	</g>
</g>
</svg>
