<?xml version="1.0" encoding="utf-8"?>
<!-- Generator: Adobe Illustrator 16.0.0, SVG Export Plug-In . SVG Version: 6.00 Build 0)  -->
<!DOCTYPE svg PUBLIC "-//W3C//DTD SVG 1.1//EN" "http://www.w3.org/Graphics/SVG/1.1/DTD/svg11.dtd">
<svg version="1.1" id="Layer_1" xmlns="http://www.w3.org/2000/svg" xmlns:xlink="http://www.w3.org/1999/xlink" x="0px" y="0px"
	 width="66px" height="74px" viewBox="0 0 66 74" enable-background="new 0 0 66 74" xml:space="preserve">
<path fill="#276030" d="M33.25,61.547L33.25,61.547c0,0-15.831-24.837-15.831-38.581c0-8.723,7.11-15.833,15.831-15.833
	c8.723,0,15.833,7.11,15.833,15.833C49.082,36.426,33.25,61.547,33.25,61.547"/>
<path fill="#BBD27F" d="M64.531,59.176c0,7.016-15.734,10.618-31.282,10.618c-15.547,0-31.281-3.603-31.281-10.618
	c0-5.781,10.145-8.529,16.114-9.669l0.759,3.979c-9.763,1.709-12.893,4.553-12.893,5.689c0,2.373,10.333,6.731,27.301,6.731
	c16.969,0,27.303-4.358,27.303-6.731c0-1.232-2.75-3.885-12.895-5.689l0.664-3.979C59.035,51.498,64.531,54.722,64.531,59.176"/>
<path fill="#BBD27F" d="M33.25,28.272L33.25,28.272c2.844,0,5.213-2.369,5.213-5.307c0-2.844-2.369-5.216-5.213-5.216
	c-2.938,0-5.308,2.373-5.308,5.216C27.942,25.904,30.312,28.272,33.25,28.272"/>
</svg>
