<?xml version="1.0" encoding="utf-8"?>
<!-- Generator: Adobe Illustrator 16.0.0, SVG Export Plug-In . SVG Version: 6.00 Build 0)  -->
<!DOCTYPE svg PUBLIC "-//W3C//DTD SVG 1.1//EN" "http://www.w3.org/Graphics/SVG/1.1/DTD/svg11.dtd">
<svg version="1.1" id="Layer_1" xmlns="http://www.w3.org/2000/svg" xmlns:xlink="http://www.w3.org/1999/xlink" x="0px" y="0px"
	 width="66px" height="74px" viewBox="0 0 66 74" enable-background="new 0 0 66 74" xml:space="preserve">
<path fill="#276030" d="M58.389,60.043v13.482h-12.6v-8.73L32.752,51.646L19.598,64.795v8.73H7.113V60.043
	c0-0.332,0.108-0.662,0.33-0.883L26.45,40.15V25.782h-6.298c-0.331,0-0.777-0.22-0.997-0.55c-0.222-0.333-0.222-0.664,0-1.104
	L31.758,1.138c0.219-0.441,0.553-0.664,0.994-0.664c0.439,0,0.77,0.223,0.994,0.664l12.598,22.989c0.221,0.441,0.109,0.772,0,1.104
	c-0.223,0.33-0.662,0.55-0.996,0.55h-6.299V40.15l19.01,19.01C58.275,59.381,58.389,59.711,58.389,60.043"/>
</svg>
