<?xml version="1.0" encoding="utf-8"?>
<!-- Generator: Adobe Illustrator 16.0.0, SVG Export Plug-In . SVG Version: 6.00 Build 0)  -->
<!DOCTYPE svg PUBLIC "-//W3C//DTD SVG 1.1//EN" "http://www.w3.org/Graphics/SVG/1.1/DTD/svg11.dtd">
<svg version="1.1" id="Layer_1" xmlns="http://www.w3.org/2000/svg" xmlns:xlink="http://www.w3.org/1999/xlink" x="0px" y="0px"
	 width="349px" height="108.5px" viewBox="0 0 349 108.5" enable-background="new 0 0 349 108.5" xml:space="preserve">
<g>
	<g>
		<polygon fill="#754D29" points="92.44,33.657 92.44,54.669 86.475,51.193 37.813,23.234 27.26,29.306 27.26,81.204 38.054,87.689 
			51.781,79.419 51.781,58.411 57.754,61.891 104.514,88.753 117,81.395 117,29.306 108.114,24.214 		"/>
		<polygon fill="#F8EC22" points="86.437,44.242 86.437,30.264 86.437,30.227 86.5,30.227 87.332,29.728 102.156,20.802 
			71.854,3.442 43.771,19.729 		"/>
		<polygon fill="#F8EC22" points="57.788,82.811 57.788,82.85 43.886,91.188 71.855,107.996 98.572,92.254 57.788,68.839 		"/>
	</g>
	<g>
		<polygon fill="#F8EC22" points="256.784,56.552 256.784,37.162 250.154,37.162 250.154,62.411 263.62,62.411 263.62,56.552 		"/>
		<path fill="#F8EC22" d="M280.349,43.646c-0.213-1.354-0.582-2.44-1.104-3.227c-0.71-1.102-1.648-1.929-2.786-2.462
			c-1.125-0.53-2.496-0.796-4.085-0.796c-1.578,0-2.956,0.266-4.093,0.79c-1.154,0.539-2.104,1.366-2.816,2.471
			c-0.496,0.777-0.854,1.858-1.067,3.208c-0.204,1.312-0.313,3.407-0.313,6.226c0,2.824,0.108,4.921,0.313,6.23
			c0.213,1.352,0.571,2.43,1.071,3.211c0.708,1.093,1.658,1.916,2.813,2.455c1.137,0.534,2.515,0.804,4.093,0.804
			c1.573,0,2.95-0.27,4.085-0.804c1.151-0.539,2.085-1.367,2.786-2.455c0.521-0.787,0.891-1.878,1.104-3.234
			c0.204-1.315,0.308-3.402,0.308-6.207C280.656,47.053,280.553,44.958,280.349,43.646 M270.568,47.75
			c0-3.078,0.237-4.185,0.438-4.567c0.153-0.296,0.454-0.693,1.335-0.693c0.912,0,1.227,0.389,1.379,0.678
			c0.164,0.306,0.439,1.305,0.439,4.583v4.218c0,3.079-0.236,4.183-0.434,4.569c-0.155,0.294-0.464,0.694-1.353,0.694
			c-0.906,0-1.214-0.41-1.367-0.716c-0.201-0.396-0.438-1.503-0.438-4.548V47.75z"/>
		<path fill="#F8EC22" d="M292.563,37.162v4.294c0,1.264,0.046,2.833,0.136,4.661c0.036,0.779,0.085,1.626,0.141,2.541
			l-3.624-11.496h-6.734v25.249h6.059v-4.577c0-1.783-0.054-3.641-0.162-5.528c-0.027-0.455-0.06-0.917-0.092-1.382l3.535,11.487
			h6.755V37.162H292.563z"/>
		<path fill="#F8EC22" d="M308.581,48.465v5.078h2.196v0.025c0.006,0.161,0.007,0.395,0.007,0.7c0,1.266-0.147,2.181-0.448,2.716
			c-0.256,0.458-0.646,0.674-1.23,0.674c-0.561,0-0.904-0.23-1.109-0.745c-0.175-0.432-0.382-1.619-0.382-4.822v-3.978
			c0-3.204,0.221-4.413,0.405-4.865c0.223-0.552,0.585-0.795,1.181-0.795c0.482,0,0.795,0.193,1.012,0.625
			c0.26,0.517,0.389,1.435,0.389,2.723v0.757h6.206v-0.465c0-0.108,0.002-0.249,0.01-0.431c0.014-0.197,0.021-0.351,0.021-0.449
			c0-2.626-0.641-4.647-1.902-5.999c-1.27-1.36-3.158-2.052-5.611-2.052c-1.553,0-2.924,0.276-4.064,0.834
			c-1.162,0.558-2.104,1.402-2.805,2.513c-0.492,0.782-0.843,1.901-1.072,3.417c-0.214,1.455-0.328,3.418-0.328,5.822
			c0,3.428,0.158,5.796,0.475,7.253c0.323,1.483,0.896,2.685,1.695,3.572c0.648,0.729,1.421,1.286,2.298,1.673
			c0.872,0.386,1.833,0.582,2.858,0.582c0.917,0,1.754-0.177,2.488-0.516c0.469-0.22,0.918-0.516,1.334-0.882l0.164,0.98h4.682
			V48.465H308.581z"/>
		<path fill="#F8EC22" d="M146.17,37.162v4.294c0,1.264,0.045,2.833,0.137,4.661c0.036,0.781,0.085,1.628,0.142,2.541l-3.62-11.496
			h-6.741v25.249h6.063v-4.577c0-1.783-0.056-3.641-0.166-5.528c-0.025-0.455-0.055-0.917-0.088-1.382l3.531,11.487h6.76V37.162
			H146.17z"/>
		<path fill="#F8EC22" d="M234.695,37.162v4.294c0,1.264,0.046,2.833,0.137,4.661c0.034,0.781,0.083,1.628,0.143,2.541
			l-3.621-11.496h-6.741v25.249h6.062v-4.577c0-1.783-0.05-3.641-0.164-5.528c-0.027-0.455-0.057-0.917-0.092-1.382l3.533,11.487
			h6.76V37.162H234.695z"/>
		<path fill="#F8EC22" d="M161.825,48.465v5.078h2.2v0.025c0.004,0.161,0.007,0.395,0.007,0.7c0,1.266-0.151,2.181-0.45,2.716
			c-0.257,0.458-0.646,0.674-1.23,0.674c-0.56,0-0.901-0.23-1.111-0.745c-0.174-0.432-0.381-1.619-0.381-4.822v-3.978
			c0-3.204,0.219-4.413,0.406-4.865c0.219-0.552,0.586-0.795,1.179-0.795c0.485,0,0.796,0.193,1.011,0.625
			c0.261,0.517,0.389,1.435,0.389,2.723v0.757h6.205v-0.465c0-0.108,0.004-0.249,0.015-0.431c0.011-0.197,0.017-0.351,0.017-0.449
			c0-2.626-0.639-4.647-1.898-5.999c-1.269-1.36-3.16-2.052-5.616-2.052c-1.553,0-2.921,0.276-4.064,0.834
			c-1.157,0.558-2.098,1.402-2.805,2.513c-0.487,0.782-0.837,1.901-1.065,3.417c-0.219,1.455-0.332,3.411-0.332,5.822
			c0,3.428,0.157,5.796,0.477,7.253c0.321,1.483,0.896,2.685,1.692,3.572c0.647,0.729,1.422,1.286,2.293,1.673
			c0.878,0.386,1.839,0.582,2.866,0.582c0.916,0,1.752-0.177,2.488-0.516c0.47-0.22,0.92-0.516,1.337-0.882l0.161,0.98h4.684V48.465
			H161.825z"/>
		<path fill="#F8EC22" d="M181.893,37.162v15.347c0,2.788-0.231,3.661-0.367,3.935c-0.124,0.249-0.371,0.578-1.097,0.578
			c-0.718,0-0.966-0.316-1.093-0.553c-0.138-0.263-0.371-1.122-0.371-3.96V37.162h-6.544v13.249c0,2.721,0.091,4.692,0.263,5.85
			c0.176,1.195,0.496,2.196,0.943,2.971c0.629,1.105,1.5,1.926,2.579,2.433c1.053,0.494,2.425,0.747,4.068,0.747
			c1.776,0,3.249-0.27,4.376-0.796c1.158-0.537,2.055-1.397,2.662-2.55c0.363-0.666,0.627-1.459,0.781-2.356
			c0.157-0.866,0.234-2.19,0.234-3.923V37.162H181.893z"/>
		<polygon fill="#F8EC22" points="200.633,37.162 198.613,43.71 196.607,37.162 189.441,37.162 195.26,51.743 195.26,62.443 
			202.043,62.443 202.043,51.743 207.863,37.162 		"/>
		<polygon fill="#F8EC22" points="222.748,42.825 222.748,37.162 208.575,37.162 208.575,62.411 222.748,62.411 222.748,56.521 
			215.175,56.521 215.175,52.168 222.162,52.168 222.162,46.343 215.175,46.343 215.175,42.825 		"/>
		<path fill="#754D29" d="M320.563,37.122c-2.256,0-4.088-1.835-4.088-4.095c0-2.253,1.832-4.087,4.088-4.087
			s4.092,1.834,4.092,4.087C324.654,35.287,322.818,37.122,320.563,37.122 M320.563,29.809c-1.776,0-3.224,1.446-3.224,3.219
			c0,1.78,1.447,3.229,3.224,3.229c1.775,0,3.226-1.449,3.226-3.229C323.788,31.255,322.338,29.809,320.563,29.809"/>
		<path fill="#754D29" d="M318.973,30.638c0.339-0.056,0.849-0.096,1.408-0.096c0.691,0,1.178,0.099,1.51,0.366
			c0.277,0.223,0.431,0.545,0.431,0.979c0,0.593-0.423,1.001-0.825,1.146v0.021c0.325,0.135,0.505,0.445,0.621,0.875
			c0.147,0.523,0.293,1.136,0.387,1.316h-1.082c-0.077-0.136-0.187-0.511-0.325-1.086c-0.124-0.585-0.327-0.743-0.757-0.753h-0.318
			v1.839h-1.049V30.638z M320.021,32.646h0.416c0.522,0,0.84-0.263,0.84-0.673c0-0.432-0.291-0.645-0.777-0.648
			c-0.258,0-0.4,0.019-0.479,0.032V32.646z"/>
		<g>
			<path fill="#754D29" d="M188.209,77.656c0.532-0.535,0.803-1.269,0.803-2.189c0-0.915-0.271-1.65-0.803-2.193
				c-0.536-0.532-1.223-0.803-2.032-0.803h-4.856v9.868h2.014v-3.927h2.116l1.91,3.927h2.22l-2.137-4.22
				C187.746,78.019,188.005,77.86,188.209,77.656z M183.334,74.267h2.574c0.285,0,0.52,0.104,0.732,0.312
				c0.206,0.21,0.309,0.5,0.309,0.889c0,0.423-0.089,0.719-0.257,0.888c-0.173,0.178-0.372,0.257-0.622,0.257h-2.736V74.267z"/>
			<polygon fill="#754D29" points="192.293,78.146 196.595,78.146 196.595,76.349 192.293,76.349 192.293,74.324 196.913,74.324 
				196.913,72.525 190.28,72.525 190.28,82.395 197.18,82.395 197.18,80.591 192.293,80.591 			"/>
			<path fill="#754D29" d="M201.652,72.419l-3.92,9.974h2.121l1.112-2.76h2.972l1.113,2.76h2.121l-3.921-9.974H201.652z
				 M203.26,77.834h-1.617l0.813-2.15L203.26,77.834z"/>
			<polygon fill="#754D29" points="210.111,72.525 208.099,72.525 208.099,82.395 214.994,82.395 214.994,80.591 210.111,80.591 			
				"/>
			<polygon fill="#754D29" points="222.775,78.146 227.076,78.146 227.076,76.349 222.775,76.349 222.775,74.324 227.395,74.324 
				227.395,72.525 220.765,72.525 220.765,82.395 227.662,82.395 227.662,80.591 222.775,80.591 			"/>
			<path fill="#754D29" d="M234.955,77.229c-1.029-0.46-1.949-0.865-2.781-1.228c-0.504-0.194-0.724-0.349-0.816-0.444
				c-0.03-0.026-0.098-0.125-0.098-0.407c0-0.216,0.081-0.397,0.256-0.569c0.142-0.146,0.474-0.314,1.262-0.314
				c0.561,0,0.968,0.122,1.205,0.365c0.209,0.21,0.309,0.469,0.309,0.782v0.396h2.014v-0.396c0-0.776-0.293-1.458-0.86-2.032
				c-0.644-0.641-1.575-0.963-2.775-0.963c-1.126,0-1.988,0.286-2.562,0.854c-0.568,0.572-0.858,1.258-0.858,2.035
				c0,0.634,0.2,1.161,0.592,1.556c0.253,0.246,0.552,0.44,0.858,0.559c0.393,0.174,0.907,0.405,1.547,0.688
				c0.559,0.249,1.013,0.456,1.373,0.638c0.432,0.191,0.639,0.35,0.736,0.45c0.136,0.138,0.201,0.301,0.201,0.514
				c0,0.175-0.104,0.367-0.306,0.571c-0.276,0.276-0.739,0.419-1.367,0.419c-0.704,0-1.215-0.162-1.526-0.472
				c-0.207-0.202-0.309-0.574-0.309-1.099v-0.397h-2.014v0.397c0,0.988,0.273,1.757,0.806,2.293c0.714,0.711,1.716,1.072,2.99,1.072
				c1.305,0,2.272-0.309,2.88-0.911c0.572-0.569,0.858-1.271,0.858-2.081c0-0.639-0.235-1.198-0.7-1.664
				C235.582,77.555,235.265,77.347,234.955,77.229z"/>
			<polygon fill="#754D29" points="237.469,74.324 240.49,74.324 240.49,82.395 242.505,82.395 242.505,74.324 245.531,74.324 
				245.531,72.525 237.469,72.525 			"/>
			<path fill="#754D29" d="M249.688,72.419l-3.922,9.974h2.121l1.114-2.76h2.97l1.111,2.76h2.123l-3.922-9.974H249.688z
				 M251.293,77.834h-1.616l0.81-2.15L251.293,77.834z"/>
			<polygon fill="#754D29" points="255.445,74.324 258.468,74.324 258.468,82.395 260.48,82.395 260.48,74.324 263.504,74.324 
				263.504,72.525 255.445,72.525 			"/>
			<polygon fill="#754D29" points="266.68,80.591 266.68,78.146 270.982,78.146 270.982,76.349 266.68,76.349 266.68,74.324 
				271.297,74.324 271.297,72.525 264.667,72.525 264.667,82.395 271.565,82.395 271.565,80.591 			"/>
		</g>
	</g>
</g>
</svg>
