<?xml version="1.0" encoding="utf-8"?>
<!-- Generator: Adobe Illustrator 16.0.0, SVG Export Plug-In . SVG Version: 6.00 Build 0)  -->
<!DOCTYPE svg PUBLIC "-//W3C//DTD SVG 1.1//EN" "http://www.w3.org/Graphics/SVG/1.1/DTD/svg11.dtd">
<svg version="1.1" id="Layer_1" xmlns="http://www.w3.org/2000/svg" xmlns:xlink="http://www.w3.org/1999/xlink" x="0px" y="0px"
	 width="145.141px" height="99.71px" viewBox="0 0 145.141 99.71" enable-background="new 0 0 145.141 99.71" xml:space="preserve">
<path fill="#BBD27F" d="M103.509,36.512l3.854-5.519c0.4-12.171,5.555-27.202,36.682-30.993
	c-8.78,5.387-11.008,13.568-14.865,18.889c-3.858,5.321-9.271,9.477-15.364,8.645c-0.846-3.939,1.798-9.644,3.394-11.438
	c-5.14,3.259-4.854,6.335-5.388,13.384c-2.927,2.594-8.313,10.559-8.313,10.559V36.512z"/>
<path fill="#276030" d="M84.061,71.154c0-4.189-0.223-13.293-0.223-24.666c0-8.53-8.929-10.824-14.215-10.824
	c-6.951,0-15.033,2.445-15.764,14.217c3.192-0.066,3.691,0.049,3.691,0.049c0.398-9.527,7.532-10.758,12.12-10.625
	c4.591,0.135,10.525,2.595,10.459,8.646c-0.068,6.053-5.62,6.318-11.341,6.652c-5.717,0.332-17.091,1.858-17.091,12.234
	c0,10.375,10.575,14.166,19.553,10.975c6.919-2.396,8.514-6.386,9.045-7.584c0.067,3.061,0.375,5.53,1.173,6.262
	c0.797,0.732,1.158,0.963,7.14,0.963v-2.992C84.959,74.26,84.061,75.25,84.061,71.154 M79.798,63.246
	c0,1.498-2.047,11.926-14.366,12.074s-11.023-11.125-8.627-13.369c7.381-6.334,14.961-2.494,22.993-6.086V63.246z"/>
<path fill="#276030" d="M140.028,71.154c0-4.189-0.225-13.293-0.225-24.666c0-8.53-8.929-10.824-14.216-10.824
	c-6.951,0-15.029,2.445-15.762,14.217c3.193-0.066,3.692,0.049,3.692,0.049c0.397-9.527,7.53-10.758,12.119-10.625
	c4.591,0.135,10.525,2.595,10.457,8.646c-0.065,6.053-5.617,6.318-11.338,6.652c-5.719,0.332-17.092,1.858-17.092,12.234
	c0,10.375,10.575,14.166,19.554,10.975c6.916-2.396,8.514-6.386,9.044-7.584c0.067,3.061,0.375,5.53,1.174,6.262
	c0.796,0.732,1.158,0.963,7.14,0.963v-2.992C140.928,74.26,140.028,75.25,140.028,71.154 M135.765,63.246
	c0,1.498-2.047,11.926-14.366,12.074s-11.022-11.125-8.629-13.369c7.382-6.334,14.963-2.494,22.995-6.086V63.246z"/>
<rect x="92.584" y="21.748" fill="#276030" width="3.724" height="57.163"/>
<rect x="100.365" y="21.748" fill="#276030" width="3.725" height="57.163"/>
<path fill="#276030" d="M25.594,76.082c-11.917,0-21.613-11.619-21.613-25.903c0-14.282,9.696-25.901,21.613-25.901
	c8.721,0,16.249,6.225,19.66,15.162h3.01c-3.62-10.545-12.404-17.99-22.67-17.99c-13.498,0-24.442,12.861-24.442,28.729
	s10.944,28.733,24.442,28.733c11.822,0,21.684-9.868,23.951-22.98h-2.881C44.475,67.453,35.863,76.082,25.594,76.082"/>
<rect y="87.851" fill="#BBD27F" width="94.894" height="11.859"/>
<path fill="#0A0B0B" d="M97.771,94.005c0-1.271,0.434-2.293,1.298-3.066c0.833-0.737,1.889-1.109,3.171-1.109
	c0.381,0,0.743,0.022,1.086,0.062c0.354,0.066,0.618,0.122,0.798,0.17c-0.005,0.094-0.007,0.189-0.01,0.287
	c-0.004,0.07-0.007,0.149-0.01,0.234l-0.011,0.408h-0.031c-0.122-0.048-0.271-0.092-0.45-0.133c-0.192-0.043-0.388-0.08-0.582-0.103
	c-0.24-0.03-0.474-0.046-0.694-0.046c-1.052,0-1.894,0.297-2.535,0.89c-0.655,0.603-0.981,1.415-0.981,2.438
	c0,0.991,0.306,1.792,0.915,2.404c0.609,0.607,1.401,0.912,2.372,0.912c0.43,0,0.805-0.042,1.128-0.125v-2.822h0.979v3.504
	c-0.622,0.217-1.338,0.328-2.147,0.328c-1.246,0-2.266-0.377-3.056-1.126c-0.825-0.773-1.238-1.807-1.238-3.097V94.005z"/>
<path fill="#0A0B0B" d="M108.411,95.824c-0.158,0.393-0.308,0.75-0.438,1.071l-0.332,0.804c-0.014,0.033-0.029,0.07-0.042,0.104
	c-0.007,0.023-0.017,0.053-0.029,0.086l-0.089,0.23h-1.004l0.748-1.801c0.108-0.256,0.226-0.535,0.349-0.83l2.366-5.668h0.122
	l3.344,8.299h-1.07l-0.053-0.163l-0.844-2.132H108.411z M111.121,95.012V94.98l-0.865-2.272c-0.132-0.354-0.227-0.63-0.284-0.829
	h-0.021c-0.062,0.189-0.161,0.466-0.301,0.829l-0.913,2.304H111.121z"/>
<path fill="#0A0B0B" d="M115.881,89.979l0.233-0.016l0.236-0.016c0.279-0.016,0.517-0.024,0.71-0.024
	c0.579,0,1.076,0.073,1.487,0.219c0.14,0.049,0.276,0.114,0.414,0.2c0.171,0.107,0.319,0.235,0.45,0.382
	c0.157,0.177,0.278,0.378,0.362,0.599c0.099,0.26,0.146,0.543,0.146,0.852c0,0.506-0.127,0.945-0.381,1.324
	c-0.098,0.147-0.217,0.283-0.353,0.404c-0.105,0.098-0.22,0.184-0.342,0.262c-0.217,0.156-0.447,0.264-0.694,0.322v0.02l2.112,2.755
	c0.299,0.397,0.514,0.678,0.648,0.837v0.021h-1.169l-2.576-3.467h-0.347v3.467h-0.939V89.979z M118.936,92.236
	c0-0.971-0.565-1.457-1.696-1.457c-0.18,0-0.319,0.008-0.419,0.021v3.082c0.025,0.004,0.066,0.006,0.128,0.006l0.179,0.005
	c0.322,0,0.625-0.063,0.9-0.189c0.261-0.127,0.467-0.29,0.619-0.497c0.193-0.262,0.289-0.582,0.289-0.959V92.236z"/>
<path fill="#0A0B0B" d="M129.271,93.894c0,0.728-0.132,1.38-0.397,1.951c-0.249,0.538-0.611,1-1.089,1.384
	c-0.726,0.614-1.696,0.92-2.907,0.92c-0.332,0-0.67-0.005-1.019-0.018l-0.166-0.012c-0.067,0-0.124-0.004-0.17-0.006l-0.312-0.025
	v-8.1c0.216-0.026,0.463-0.046,0.742-0.055l0.481-0.016l0.481-0.006c1.069,0,1.967,0.232,2.688,0.695
	c1.11,0.705,1.666,1.797,1.666,3.275V93.894z M128.255,93.913c0-1.073-0.408-1.917-1.223-2.534
	c-0.524-0.393-1.214-0.588-2.065-0.588c-0.108,0-0.245,0.005-0.414,0.015l-0.372,0.021v6.381c0,0.015,0.007,0.021,0.026,0.021
	c0.188,0.021,0.44,0.032,0.76,0.032c0.913,0,1.64-0.248,2.188-0.741c0.347-0.296,0.613-0.65,0.797-1.068
	c0.201-0.447,0.303-0.958,0.303-1.528V93.913z"/>
<polygon fill="#0A0B0B" points="132.119,89.959 135.813,89.959 135.813,90.811 133.091,90.811 133.091,93.535 135.604,93.535 
	135.604,94.372 133.091,94.372 133.091,97.25 135.926,97.25 135.926,98.119 132.119,98.119 "/>
<path fill="#0A0B0B" d="M145.141,98.22h-0.118l-4.623-5.368c-0.211-0.25-0.429-0.518-0.648-0.803h-0.022
	c0.007,0.186,0.011,0.438,0.011,0.756v5.314h-0.898V89.84h0.101l4.395,5.137l0.885,1.057h0.021
	c-0.007-0.204-0.011-0.466-0.011-0.785v-5.289h0.91V98.22z"/>
<path fill="#FFFFFF" d="M8.396,92.812l-0.349,0.421c-0.34-0.463-0.754-0.695-1.242-0.695c-0.207,0-0.378,0.043-0.514,0.131
	c-0.16,0.102-0.237,0.252-0.237,0.448c0,0.155,0.062,0.295,0.186,0.407c0.1,0.097,0.338,0.222,0.714,0.373
	c0.511,0.203,0.779,0.313,0.805,0.324c0.507,0.248,0.759,0.62,0.759,1.119c0,0.449-0.167,0.795-0.5,1.035
	c-0.297,0.218-0.678,0.324-1.143,0.324c-0.881,0-1.46-0.36-1.738-1.083l0.412-0.388c0.257,0.636,0.714,0.953,1.372,0.953
	c0.271,0,0.493-0.059,0.667-0.176c0.202-0.133,0.303-0.328,0.303-0.586c0-0.184-0.061-0.336-0.18-0.459
	c-0.114-0.115-0.408-0.262-0.881-0.438c-0.474-0.18-0.794-0.328-0.959-0.451c-0.304-0.227-0.457-0.527-0.457-0.902
	c0-0.365,0.148-0.651,0.444-0.861c0.262-0.184,0.583-0.276,0.963-0.276C7.492,92.032,8.018,92.292,8.396,92.812"/>
<path fill="#FFFFFF" d="M14.111,92.143h0.712l1.741,4.459h-0.599l-0.406-1.069h-2.172l-0.413,1.069h-0.588L14.111,92.143z
	 M14.468,92.662l-0.9,2.359h1.812L14.468,92.662z"/>
<rect x="20.665" y="92.143" fill="#FFFFFF" width="0.62" height="4.457"/>
<path fill="#FFFFFF" d="M29.227,92.947l-0.388,0.376c-0.272-0.49-0.655-0.737-1.143-0.737c-0.485,0-0.854,0.187-1.102,0.557
	c-0.211,0.317-0.318,0.729-0.318,1.242c0,0.494,0.101,0.896,0.303,1.209c0.239,0.368,0.594,0.553,1.064,0.553
	c0.438,0,0.774-0.17,1.008-0.503v-0.807h-1.297v-0.519h1.897v1.506c-0.366,0.584-0.9,0.875-1.603,0.875
	c-0.651,0-1.154-0.229-1.513-0.693c-0.325-0.417-0.485-0.961-0.485-1.63c0-0.685,0.168-1.236,0.502-1.651
	c0.365-0.448,0.885-0.672,1.556-0.672C28.391,92.053,28.897,92.349,29.227,92.947"/>
<path fill="#FFFFFF" d="M35.378,92.044c0.627,0,1.13,0.237,1.511,0.71c0.35,0.44,0.525,0.982,0.525,1.623
	c0,0.643-0.175,1.182-0.525,1.618c-0.378,0.47-0.882,0.704-1.511,0.704c-0.627,0-1.13-0.234-1.509-0.704
	c-0.353-0.437-0.527-0.976-0.527-1.618c0-0.354,0.053-0.678,0.16-0.973c0.15-0.412,0.393-0.742,0.725-0.99
	C34.559,92.168,34.944,92.044,35.378,92.044 M35.378,92.586c-0.455,0-0.81,0.193-1.068,0.578c-0.227,0.334-0.34,0.738-0.34,1.213
	c0,0.477,0.113,0.879,0.34,1.212c0.258,0.38,0.613,0.569,1.068,0.569c0.453,0,0.809-0.189,1.068-0.572
	c0.227-0.332,0.34-0.737,0.34-1.209c0-0.475-0.113-0.879-0.34-1.213C36.188,92.779,35.833,92.586,35.378,92.586"/>
<polygon fill="#FFFFFF" points="41.746,92.143 42.438,92.143 44.597,95.616 44.597,92.143 45.163,92.143 45.163,96.602 
	44.526,96.602 42.316,93.031 42.316,96.602 41.746,96.602 "/>
<path fill="#FFFFFF" d="M57.723,92.812l-0.349,0.421c-0.341-0.463-0.753-0.695-1.242-0.695c-0.205,0-0.379,0.043-0.514,0.131
	c-0.158,0.102-0.236,0.252-0.236,0.448c0,0.155,0.062,0.295,0.185,0.407c0.102,0.097,0.339,0.222,0.716,0.373
	c0.508,0.203,0.779,0.313,0.806,0.324c0.506,0.248,0.759,0.62,0.759,1.119c0,0.449-0.169,0.795-0.502,1.035
	c-0.296,0.218-0.677,0.324-1.141,0.324c-0.883,0-1.461-0.36-1.739-1.083l0.413-0.388c0.256,0.636,0.713,0.953,1.369,0.953
	c0.271,0,0.493-0.059,0.668-0.176c0.203-0.133,0.304-0.328,0.304-0.586c0-0.184-0.062-0.336-0.181-0.459
	c-0.114-0.115-0.407-0.262-0.88-0.438c-0.475-0.18-0.796-0.328-0.961-0.451c-0.303-0.227-0.454-0.527-0.454-0.902
	c0-0.365,0.147-0.651,0.443-0.861c0.261-0.184,0.583-0.276,0.962-0.276C56.819,92.032,57.345,92.292,57.723,92.812"/>
<path fill="#FFFFFF" d="M64.003,92.044c0.626,0,1.13,0.237,1.51,0.71c0.352,0.44,0.524,0.982,0.524,1.623
	c0,0.643-0.173,1.182-0.524,1.618c-0.378,0.47-0.881,0.704-1.51,0.704c-0.627,0-1.131-0.234-1.509-0.704
	c-0.352-0.437-0.528-0.976-0.528-1.618c0-0.354,0.055-0.678,0.16-0.973c0.151-0.412,0.393-0.742,0.727-0.99
	C63.185,92.168,63.569,92.044,64.003,92.044 M64.003,92.586c-0.455,0-0.811,0.193-1.068,0.578c-0.229,0.334-0.339,0.738-0.339,1.213
	c0,0.477,0.11,0.879,0.339,1.212c0.258,0.38,0.613,0.569,1.068,0.569c0.454,0,0.808-0.189,1.069-0.572
	c0.227-0.332,0.339-0.737,0.339-1.209c0-0.475-0.112-0.879-0.339-1.213C64.813,92.779,64.458,92.586,64.003,92.586"/>
<path fill="#FFFFFF" d="M70.281,92.143h0.596v2.829c0,0.792,0.379,1.187,1.139,1.187c0.413,0,0.713-0.105,0.899-0.315
	c0.181-0.204,0.27-0.514,0.27-0.93v-2.771h0.582v2.841c0,1.146-0.582,1.716-1.745,1.716c-1.16,0-1.74-0.541-1.74-1.629V92.143z"/>
<polygon fill="#FFFFFF" points="77.749,92.143 81.241,92.143 81.241,92.684 79.803,92.684 79.803,96.602 79.189,96.602 
	79.189,92.684 77.749,92.684 "/>
<polygon fill="#FFFFFF" points="85.304,92.143 85.905,92.143 85.905,94.033 88.223,94.033 88.223,92.143 88.825,92.143 
	88.825,96.602 88.223,96.602 88.223,94.541 85.905,94.541 85.905,96.602 85.304,96.602 "/>
</svg>
