<?xml version="1.0" encoding="utf-8"?>
<!-- Generator: Adobe Illustrator 16.0.0, SVG Export Plug-In . SVG Version: 6.00 Build 0)  -->
<!DOCTYPE svg PUBLIC "-//W3C//DTD SVG 1.1//EN" "http://www.w3.org/Graphics/SVG/1.1/DTD/svg11.dtd">
<svg version="1.1" id="Layer_1" xmlns="http://www.w3.org/2000/svg" xmlns:xlink="http://www.w3.org/1999/xlink" x="0px" y="0px"
	 width="349px" height="108.5px" viewBox="0 0 349 108.5" enable-background="new 0 0 349 108.5" xml:space="preserve">
<g>
	<path fill="#808184" d="M120.915,82.946l-5.232,14.808h-3.152l-5.229-14.808h2.942c0.461,1.394,0.913,2.781,1.354,4.156
		c0.441,1.374,0.891,2.752,1.35,4.141l1.16,3.884l1.182-3.884c0.447-1.389,0.894-2.767,1.347-4.141
		c0.452-1.375,0.901-2.763,1.345-4.156H120.915z"/>
	<rect x="127.203" y="82.949" fill="#808184" width="2.833" height="14.805"/>
	<polygon fill="#808184" points="149.03,97.754 137.736,97.754 137.736,82.949 148.701,82.949 148.701,85.366 140.572,85.366 
		140.572,88.987 148.165,88.987 148.165,91.408 140.572,91.408 140.572,95.347 149.03,95.347 	"/>
	<polygon fill="#808184" points="166.707,85.398 162.197,85.398 162.197,97.754 159.364,97.754 159.364,85.398 154.898,85.398 
		154.898,82.946 166.707,82.946 	"/>
	<polygon fill="#808184" points="185.187,97.754 182.33,97.754 175.719,87.085 175.799,92.348 175.799,97.754 173.125,97.754 
		173.125,82.949 175.994,82.949 182.603,93.619 182.525,88.345 182.525,82.949 185.187,82.949 	"/>
	<path fill="#808184" d="M205.167,97.755h-2.979l-1.346-3.785h-5.527l-1.292,3.785h-2.831l5.315-14.809h3.099L205.167,97.755z
		 M200.175,91.693l-2.134-6.297l-2.058,6.297H200.175z"/>
	<polygon fill="#808184" points="226.379,97.754 223.731,97.754 223.731,91.64 223.794,85.814 220.084,97.754 217.504,97.754 
		213.747,85.814 213.827,91.64 213.827,97.754 211.158,97.754 211.158,82.949 215.247,82.949 218.76,94.459 222.274,82.949 
		226.379,82.949 	"/>
	<path fill="#808184" d="M333.351,30.503c0-3.386,2.745-6.132,6.132-6.132c3.391,0,6.134,2.746,6.137,6.132
		c-0.003,3.386-2.746,6.132-6.137,6.134C336.096,36.635,333.351,33.889,333.351,30.503 M334.238,30.503
		c0.006,2.897,2.349,5.242,5.244,5.246c2.898-0.004,5.243-2.349,5.246-5.246c-0.003-2.896-2.348-5.241-5.246-5.245
		C336.587,25.262,334.244,27.607,334.238,30.503"/>
	<path fill="#808184" d="M342.618,33.68h-1.455l-1.894-2.169h-1.175v2.169h-1.226v-6.501c1.028,0,2.058,0.011,3.087,0.011
		c1.533,0.009,2.338,1.028,2.338,2.149c0,0.89-0.409,1.79-1.641,2.04l1.965,2.217V33.68z M338.095,28.328v2.076h1.861
		c0.78,0,1.113-0.519,1.113-1.037c0-0.52-0.341-1.039-1.113-1.039H338.095z"/>
	<rect x="7.187" y="44.468" fill="#754D29" width="9.269" height="26.826"/>
	<polygon fill="#754D29" points="30.851,64.218 30.851,30.781 21.553,30.781 21.553,71.295 43.757,71.295 43.757,64.218 	"/>
	<path fill="#754D29" d="M143.076,36.431c-3.711-3.71-8.928-5.611-15.516-5.649h-9.234v40.514h9.237
		c6.584-0.037,11.795-1.939,15.484-5.647c4.032-4.012,6.075-8.925,6.075-14.607C149.122,45.396,147.088,40.48,143.076,36.431
		 M125.661,37.946h1.873c4.343,0,7.752,1.16,10.127,3.443c2.646,2.667,3.985,5.912,3.985,9.65c0,3.754-1.34,6.988-3.981,9.612
		c-2.378,2.329-5.788,3.507-10.131,3.507h-1.873V37.946z"/>
	<path fill="#754D29" d="M186.89,62.451c-1.861,1.415-4.351,2.135-7.399,2.135c-3.663,0-6.855-1.325-9.492-3.945
		c-2.632-2.612-3.968-5.844-3.968-9.601c0-3.738,1.336-6.965,3.968-9.592c2.637-2.625,5.829-3.957,9.492-3.957
		c3.353,0,6.844,1.593,10.376,4.737l0.276,0.249l5.455-4.806l-0.351-0.318c-5.102-4.644-10.402-6.997-15.757-6.997
		c-5.755,0-10.717,2.049-14.748,6.089c-4.032,4.04-6.076,8.95-6.076,14.595c0,5.683,2.044,10.601,6.076,14.622
		c4.031,4.021,8.99,6.061,14.748,6.061c5.397,0,10.31-2.092,14.603-6.21l0.131-0.127V50.278h-7.334V62.451z"/>
	<path fill="#754D29" d="M217.42,57.661c0.513-0.325,1.407-1.07,3.144-2.81c2.772-2.753,4.18-6.113,4.18-9.99
		c0-3.84-1.388-7.171-4.123-9.908c-2.322-2.301-5.228-3.703-8.685-4.172h-12.124v40.514h7.332V58.739l1.894-0.625l8.354,12.985
		l0.123,0.195h8.713L217.42,57.661z M207.144,37.888h3.377c1.882,0,3.461,0.664,4.829,2.03c1.347,1.346,2.029,3.008,2.029,4.943
		c0,1.97-0.683,3.653-2.029,4.999c-1.366,1.365-2.944,2.029-4.829,2.029h-3.377V37.888z"/>
	<path fill="#754D29" d="M264.272,36.36c-4.04-4.04-9.008-6.089-14.764-6.089c-5.737,0-10.7,2.049-14.749,6.089
		c-4.05,4.039-6.104,8.961-6.104,14.624c0,5.68,2.054,10.609,6.104,14.648c4.049,4.04,9.012,6.09,14.749,6.09
		c5.755,0,10.721-2.05,14.764-6.09c4.04-4.04,6.089-8.969,6.089-14.648C270.361,45.321,268.313,40.401,264.272,36.36
		 M249.509,64.586c-3.665,0-6.862-1.336-9.509-3.97c-2.642-2.636-3.98-5.877-3.98-9.632c0-3.738,1.339-6.972,3.98-9.608
		c2.647-2.634,5.847-3.972,9.509-3.972c3.68,0,6.883,1.338,9.519,3.972c2.634,2.637,3.972,5.867,3.972,9.608
		c0,3.755-1.338,6.996-3.972,9.632C256.393,63.25,253.188,64.586,249.509,64.586"/>
	<path fill="#754D29" d="M295.584,30.781V57.5c0,1.96-0.666,3.581-2.044,4.956c-1.354,1.356-2.984,2.044-4.844,2.044
		c-1.886,0-3.476-0.668-4.861-2.046c-1.381-1.373-2.056-2.991-2.056-4.954V30.781h-7.33V57.5c0,3.837,1.393,7.185,4.144,9.947
		c2.753,2.759,6.152,4.16,10.104,4.16c3.933,0,7.34-1.404,10.132-4.176c2.266-2.284,3.64-5.131,4.09-8.516V30.781H295.584z"/>
	<path fill="#754D29" d="M329.229,34.953c-2.319-2.301-5.225-3.703-8.683-4.172h-12.128v40.514h7.335v-12.27h3.374
		c3.916,0,7.3-1.398,10.062-4.16c2.76-2.762,4.161-6.127,4.161-10.004C333.351,41.019,331.965,37.69,329.229,34.953 M323.958,49.861
		c-1.362,1.364-2.945,2.03-4.83,2.03h-3.374V37.888h3.374c1.884,0,3.466,0.664,4.83,2.03c1.349,1.346,2.029,3.01,2.029,4.943
		C325.987,46.831,325.307,48.515,323.958,49.861"/>
	<path fill="#F69321" d="M17.394,36.354c0,3.078-2.496,5.569-5.572,5.569c-3.078,0-5.572-2.491-5.572-5.569
		c0-3.076,2.494-5.572,5.572-5.572C14.898,30.781,17.394,33.277,17.394,36.354"/>
	<path fill="#F69321" d="M77.327,11.079c-4.979-3.417-11.738-3.4-19.066-0.603c4.751-1.216,9.011-0.854,12.276,1.386
		c10.202,7.004,6.843,29.621-7.501,50.517C48.691,83.277,28.791,94.541,18.59,87.537c-3.327-2.282-5.186-6.246-5.719-11.251
		c-0.041,7.991,2.366,14.431,7.41,17.891c12.079,8.292,34.639-3.589,50.391-26.539C86.425,44.69,89.404,19.368,77.327,11.079"/>
	<polygon fill="#754D29" points="93.27,47.314 110.38,71.295 114.974,71.295 114.974,30.781 107.611,30.781 107.611,54.875 
		90.555,30.959 90.43,30.781 85.935,30.781 85.935,71.295 89.208,71.295 93.27,71.295 	"/>
	<path fill="#754D29" d="M73.133,66.489l2.226,4.806h9.492l-6.567-14.092C76.799,60.295,75.081,63.405,73.133,66.489"/>
	<path fill="#754D29" d="M61.782,55.641l3.098-6.639l2.07,4.368c1.875-3.54,3.437-7.062,4.662-10.478L64.96,28.627L44.91,71.295
		h9.535l4.198-8.984h2.89c1.517-2.211,2.902-4.44,4.167-6.67H61.782z"/>
</g>
</svg>
