<?xml version="1.0" encoding="utf-8"?>
<!-- Generator: Adobe Illustrator 16.0.0, SVG Export Plug-In . SVG Version: 6.00 Build 0)  -->
<!DOCTYPE svg PUBLIC "-//W3C//DTD SVG 1.1//EN" "http://www.w3.org/Graphics/SVG/1.1/DTD/svg11.dtd">
<svg version="1.1" id="Layer_1" xmlns="http://www.w3.org/2000/svg" xmlns:xlink="http://www.w3.org/1999/xlink" x="0px" y="0px"
	 width="349px" height="108.5px" viewBox="0 0 349 108.5" enable-background="new 0 0 349 108.5" xml:space="preserve">
<g>
	<path fill="#1C2E56" d="M27.612,41.739c-1.233-0.836-2.711-1.26-4.399-1.26H5.127v30.652h8.94V60.555h3.288
		c3.363,0,6.214-0.677,8.477-2.016c2.489-1.469,3.75-3.442,3.75-5.873V45.02C29.582,43.73,28.919,42.626,27.612,41.739
		 M14.067,46.941h6.575v5.725c0,0.947-1.105,1.428-3.288,1.428h-3.288V46.941z"/>
	<polygon fill="#1C2E56" points="46.572,52.568 39.999,52.568 39.999,40.479 31.057,40.479 31.057,71.132 39.999,71.132 
		39.999,59.045 46.572,59.045 46.572,71.132 55.51,71.132 55.51,40.479 46.572,40.479 	"/>
	<path fill="#1C2E56" d="M72.244,64.67h-6.569v-24.19h-8.943v26.116c0,1.289,0.661,2.389,1.967,3.281
		c1.235,0.83,2.714,1.255,4.402,1.255h11.718c1.688,0,3.166-0.425,4.4-1.255c1.307-0.891,1.968-1.989,1.968-3.281V40.479h-8.943
		V64.67z"/>
	<polygon fill="#1C2E56" points="106.278,52.568 99.705,52.568 99.705,40.479 90.763,40.479 90.763,71.132 99.705,71.132 
		99.705,59.045 106.278,59.045 106.278,71.132 115.218,71.132 115.218,40.479 106.278,40.479 	"/>
	<path fill="#1C2E56" d="M233.833,41.739c-1.233-0.834-2.713-1.26-4.4-1.26h-11.718c-1.688,0-3.168,0.426-4.4,1.26
		c-1.306,0.887-1.967,1.991-1.967,3.28v21.576c0,1.289,0.661,2.391,1.967,3.279c1.232,0.832,2.713,1.257,4.4,1.257h11.718
		c1.688,0,3.167-0.425,4.4-1.257c1.308-0.889,1.968-1.987,1.968-3.279V54.093H223.09v6.46h3.77v4.12h-6.57V46.941h6.57v4.527h8.941
		V45.02C235.801,43.728,235.141,42.626,233.833,41.739"/>
	<path fill="#1C2E56" d="M272.413,40.479l-7.94,30.293v-6.1H253.42V40.479h-8.942v30.652h19.9h0.095h8.973l1.611-6.019h6.06
		l1.565,6.019h9.093l-8.007-30.652H272.413z M279.457,58.654h-2.76l1.38-8.967L279.457,58.654z"/>
	<polygon fill="#1C2E56" points="309.594,57.237 303.904,40.479 292.017,40.479 292.017,71.132 300.959,71.132 300.959,54.439 
		306.674,71.132 318.535,71.132 318.535,40.479 309.594,40.479 	"/>
	<path fill="#1C2E56" d="M342.526,41.739c-1.231-0.836-2.714-1.26-4.401-1.26H320.04v30.652h12.229c3.361,0,6.213-0.678,8.475-2.015
		c2.488-1.465,3.75-3.451,3.75-5.89V45.02C344.494,43.73,343.831,42.626,342.526,41.739 M335.555,46.941v16.286
		c0,0.958-1.105,1.442-3.285,1.442h-3.289V46.941H335.555z"/>
	<path fill="#1C2E56" d="M122.712,71.132h10.519l7.563-17.314V45.02c0-1.289-0.66-2.394-1.967-3.28
		c-1.231-0.836-2.708-1.26-4.399-1.26h-11.716c-1.692,0-3.172,0.424-4.403,1.26c-1.304,0.887-1.966,1.991-1.966,3.28v21.576
		c0,1.292,0.662,2.395,1.966,3.279C119.541,70.707,121.021,71.132,122.712,71.132 M125.281,46.941h6.575v17.731h-6.575V46.941z"/>
	<polygon fill="#1C2E56" points="201.279,40.479 201.279,57.237 195.591,40.479 183.705,40.479 183.705,47.638 192.645,68.093 
		192.645,54.442 198.359,71.132 210.221,71.132 210.221,40.479 	"/>
	<polygon fill="#16B14B" points="119.14,105.804 163.438,4.395 195.736,78.283 147.426,54.466 168.569,54.369 168.537,26.52 
		151.473,53.933 145.974,54.112 149.984,56.313 	"/>
	<path fill="#5E5F5F" d="M149.611,87.269c0.222-0.355,0.446-1.264-0.487-1.241c-4.737,0.022-8.939,10.527-3.646,10.392
		c0.622-0.02,1.266-0.331,1.799-0.953c0.111-0.155,0.245-0.335,0.333-0.513c0.378-1.263,0.735-2.509,1.113-3.775
		c0.043-0.157,0.087-0.267,0.154-0.378h-1.688c0.178-0.662,0.042-0.597,0.623-0.597h3.132c-0.111,0.576-0.199,0.507-0.289,0.951
		c-0.533,1.732-1.845,6.978-2.843,8.774c-0.49,0.888-1.757,2.022-3.047,2.022c-1.667,0-2.291-0.776-2.268-1.6
		c0.023-0.753,0.401-1.2,1.066-1.2c0.712,0,0.801,0.513,0.78,0.712c0,0.556-0.267,0.733-0.267,1.044
		c-0.025,0.287,0.244,0.487,0.601,0.487c0.821,0,1.287-0.689,1.621-1.865c0.29-1.001,0.578-1.996,0.867-2.999
		c-0.733,0.49-1.644,0.754-2.488,0.754c-7.003-0.175-2.87-12.085,4.535-12.085c0.798,0,1.687,0.425,1.889,1.516
		c0.043,0.286,0,0.664-0.113,0.999c-0.421,1.176-1.556,0.931-1.556,0.112C149.433,87.646,149.477,87.448,149.611,87.269"/>
	<path fill="#5E5F5F" d="M156.95,95.331c-0.379,1.134-1.179,2.397-2.536,2.331c-2.822-0.129-1.576-4.107-1.088-5.951
		c0.179-0.645,0.377-1.355,0.576-2.043c0.335-1.2,0.579-0.756,2.136-0.954c-0.045,0.133-0.111,0.399-0.156,0.533
		c-0.245,0.776-0.488,1.598-0.71,2.331c-0.29,1-1.558,5.329-0.267,5.329c0.71,0,1.177-0.843,1.422-1.441
		C156.417,95.242,156.705,95.331,156.95,95.331 M154.639,86.889c0.042-0.556,0.533-0.996,1.09-0.996c0.531,0,0.932,0.44,0.887,0.996
		c-0.066,0.557-0.533,1.003-1.089,1.003C154.994,87.892,154.592,87.445,154.639,86.889"/>
	<path fill="#5E5F5F" d="M166.997,95.332c-0.399,1.133-1.177,2.4-2.533,2.33c-1.203-0.042-1.668-0.795-1.757-1.796
		c-0.756,1.066-1.711,1.796-2.777,1.796c-4.249,0.022-1.535-9.08,2.22-9.08c0.891,0,1.469,0.44,1.782,1.108
		c0.354-1.222,0.532-0.778,2.153-0.977c-0.044,0.133-0.109,0.399-0.155,0.533c-0.244,0.776-0.489,1.598-0.71,2.331
		c-0.29,0.998-1.557,5.329-0.267,5.329c0.71,0,1.177-0.862,1.421-1.464C166.463,95.243,166.798,95.332,166.997,95.332
		 M162.508,89.356c-1.934,0-4.379,7.551-2.224,7.551C162.508,96.907,164.464,89.356,162.508,89.356 M165.93,85.802
		c-0.156,1.289-2.555,1.044-1.755,1.845c-0.356,0.202-0.647-0.11-0.667-0.333c-0.09-0.98,1.29-0.802,1.223-1.888
		c-0.023-0.355-0.179-0.512-0.623-0.533c-0.933-0.043-1.09,0.866-0.511,1.177c-0.513,0.399-1.113,0.134-1.135-0.402
		c0-0.798,0.913-1.195,1.824-1.173C165.152,84.494,166.019,85.045,165.93,85.802"/>
	<path fill="#5E5F5F" d="M172.159,95.331c-0.38,1.134-1.181,2.397-2.537,2.331c-2.822-0.129-1.577-4.107-1.089-5.951
		c0.179-0.645,0.377-1.355,0.579-2.043c0.333-1.2,0.58-0.756,2.134-0.954c-0.045,0.133-0.111,0.399-0.156,0.533
		c-0.243,0.776-0.488,1.598-0.712,2.331c-0.286,1-1.556,5.329-0.265,5.329c0.71,0,1.177-0.843,1.422-1.441
		C171.625,95.242,171.912,95.331,172.159,95.331 M169.846,86.889c0.043-0.556,0.531-0.996,1.088-0.996
		c0.533,0,0.932,0.44,0.889,0.996c-0.066,0.557-0.533,1.003-1.09,1.003C170.201,87.892,169.798,87.445,169.846,86.889"/>
	<path fill="#5E5F5F" d="M187.341,95.332c-0.111,0.332-0.244,0.621-0.399,0.864c-1.268,2.134-4.335,2.134-5.981,1.488
		c-0.643-0.265-1.198-0.888-0.578-1.331c0.111,0.354,0.337,0.554,0.669,0.554c1.956,0,4.49-7.551,2.333-7.551
		c-0.777,0-1.6,0.868-2.154,2.001c-0.848,2.886-1.667,5.752-2.536,8.749c-0.422,1.446-0.398,1.024-2.289,1.222
		c1.201-3.93,2.221-7.661,3.401-11.641c0.333-1.134,0.933-0.818,2.222-0.974c-0.066,0.218-0.133,0.44-0.2,0.643
		c0.579-0.467,1.245-0.777,1.892-0.777c3.777,0,2.067,7.176-0.979,8.776c1.268,0.153,2.777-0.091,3.6-1.223
		c0.135-0.2,0.268-0.421,0.379-0.689C186.807,95.242,187.141,95.332,187.341,95.332"/>
	<path fill="#5E5F5F" d="M197.746,95.332c-0.4,1.133-1.178,2.4-2.535,2.336c-3.156-0.159-1.156-5.271-0.844-7
		c0.089-0.489-0.045-0.867-0.4-0.867c-1.023,0-2.488,2.485-3.154,3.777c-0.29,0.999-0.604,2.021-0.913,3.063
		c-0.334,1.113-0.934,0.802-2.202,0.96c1.178-3.888,2.182-7.489,3.337-11.421c0.333-1.135,0.933-0.799,2.224-0.952
		c-0.625,2.041-1.203,4.02-1.779,6.019c0.844-1.337,1.978-2.667,3.244-2.667c0.868,0,1.6,0.688,1.379,2.154
		c-0.113,0.799-1.801,6.174-0.4,6.174c0.711,0,1.177-0.865,1.424-1.464C197.212,95.242,197.545,95.332,197.746,95.332"/>
	<path fill="#5E5F5F" d="M207.817,95.332c-0.398,1.133-1.177,2.396-2.532,2.33c-1.203-0.042-1.668-0.795-1.779-1.775
		c-0.734,1.046-1.71,1.775-2.756,1.775c-4.246,0-1.535-9.083,2.2-9.083c0.912,0,1.488,0.443,1.803,1.111
		c0.354-1.223,0.532-0.779,2.153-0.977c-0.045,0.132-0.133,0.399-0.178,0.533c-0.223,0.776-0.465,1.598-0.688,2.354
		c-0.29,0.976-1.557,5.307-0.268,5.307c0.712,0,1.179-0.865,1.423-1.464C207.285,95.242,207.617,95.332,207.817,95.332
		 M203.328,89.359c-1.953,0-4.378,7.529-2.244,7.529C203.328,96.889,205.264,89.359,203.328,89.359 M203.016,87.49
		c1.181-0.354,2.002-1.555,2.58-2.532c0.2,0.423,0.778,1.111,0.399,1.469c-0.601,0.574-1.354,1.155-2.267,1.311
		C203.328,87.801,203.371,87.737,203.016,87.49"/>
	<path fill="#5E5F5F" d="M217.979,95.332c-0.11,0.332-0.244,0.621-0.4,0.864c-1.267,2.134-4.334,2.134-5.979,1.488
		c-0.645-0.265-1.203-0.888-0.578-1.331c0.111,0.354,0.332,0.554,0.666,0.554c1.955,0,4.49-7.551,2.334-7.551
		c-0.777,0-1.601,0.868-2.156,2.001c-0.844,2.886-1.667,5.752-2.534,8.749c-0.423,1.446-0.399,1.024-2.287,1.222
		c1.199-3.93,2.222-7.661,3.397-11.641c0.336-1.134,0.936-0.818,2.225-0.974c-0.066,0.218-0.133,0.44-0.201,0.643
		c0.579-0.467,1.246-0.777,1.892-0.777c3.776,0,2.066,7.176-0.979,8.776c1.267,0.153,2.779-0.091,3.601-1.223
		c0.134-0.2,0.267-0.421,0.38-0.689C217.445,95.242,217.779,95.332,217.979,95.332"/>
	<path fill="#5E5F5F" d="M233.053,95.332c-0.399,1.133-1.178,2.396-2.533,2.33c-1.2-0.042-1.669-0.795-1.756-1.796
		c-0.756,1.066-1.711,1.796-2.779,1.796c-4.245,0.022-1.533-9.08,2.223-9.08c0.889,0,1.467,0.44,1.777,1.108
		c0.357-1.222,0.535-0.778,2.158-0.977c-0.046,0.133-0.113,0.399-0.158,0.533c-0.242,0.776-0.486,1.598-0.71,2.331
		c-0.29,0.998-1.554,5.329-0.269,5.329c0.713,0,1.181-0.862,1.424-1.464C232.52,95.243,232.852,95.332,233.053,95.332
		 M228.563,89.356c-1.936,0-4.381,7.551-2.221,7.551C228.563,96.907,230.52,89.356,228.563,89.356"/>
	<path fill="#5E5F5F" d="M243.436,95.332c-0.398,1.133-1.199,2.4-2.555,2.336c-3.158-0.159-1.201-5.271-0.846-7
		c0.111-0.489-0.022-0.867-0.377-0.867c-1,0-2.424,2.377-3.136,3.688c-0.289,1.044-0.6,2.065-0.911,3.152
		c-0.332,1.113-0.955,0.802-2.223,0.96c0.844-2.734,1.577-5.335,2.357-7.976c0.332-1.156,0.666-0.735,2.179-0.911l-0.156,0.533
		c-0.179,0.621-0.4,1.309-0.579,1.931c0.846-1.31,1.979-2.599,3.223-2.599c0.846,0,1.578,0.688,1.357,2.18
		c-0.111,0.8-1.779,6.128-0.401,6.128c0.735,0,1.181-0.822,1.445-1.421C242.881,95.242,243.213,95.332,243.436,95.332"/>
	<path fill="#5E5F5F" d="M256.599,95.332c-0.578,1.508-2.179,2.353-3.979,2.336c-5.803-0.025-3.202-9.023,1.356-9.089
		c0.82-0.025,1.689,0.333,1.889,1.267c0.021,0.109,0.043,0.243,0.021,0.379c-0.021,0.731-0.51,1.621-1.29,1.266
		c-0.198-0.111-0.333-0.336-0.333-0.602c-0.022-0.221,0.067-0.487,0.225-0.73c0.71-0.978-0.512-0.892-1.111-0.559
		c-2.18,1.289-3.891,7.353-0.156,7.308c0.978,0,2.223-0.511,2.732-1.464C256.064,95.242,256.354,95.332,256.599,95.332"/>
	<path fill="#5E5F5F" d="M266.114,95.311c-0.399,1.131-1.177,2.422-2.532,2.357c-1.18-0.067-1.646-0.801-1.759-1.759
		c-0.555,0.931-1.376,1.8-2.599,1.759c-2.802-0.159-1.58-4.135-1.09-5.978l0.578-2.045c0.354-1.198,0.467-0.714,2.133-0.932
		c-0.266,0.954-0.576,1.929-0.867,2.864c-0.289,0.977-1.557,5.309-0.268,5.309c1.046,0,1.803-1.509,2.112-2.266
		c0.356-1.978,0.712-3.175,1.224-4.934c0.355-1.219,0.535-0.775,2.155-0.974c0.89-0.16,1.155-0.689,0.692-0.888
		c-0.114-0.066-0.447-0.066-0.603-0.154c-0.222-0.09-0.378-0.425-0.222-0.736c0.179-0.335,0.623-0.58,1.09-0.378
		c0.287,0.134,0.842,0.666,0.643,1.489c-0.223,0.908-0.955,1.31-1.844,1.443l-0.624,2.088c-0.287,0.977-1.554,5.309-0.267,5.309
		c0.713,0,1.181-0.868,1.424-1.468C265.58,95.222,265.914,95.311,266.114,95.311"/>
	<path fill="#5E5F5F" d="M281.5,95.332c-0.401,1.133-1.18,2.4-2.535,2.336c-3.156-0.159-1.156-5.271-0.844-7
		c0.087-0.489-0.044-0.867-0.4-0.867c-1.022,0-2.489,2.485-3.156,3.777c-0.29,0.999-0.6,2.021-0.912,3.063
		c-0.332,1.113-0.934,0.802-2.201,0.96c1.18-3.888,2.18-7.489,3.334-11.421c0.334-1.135,0.935-0.799,2.225-0.952
		c-0.623,2.041-1.201,4.02-1.778,6.019c0.843-1.337,1.978-2.667,3.245-2.667c0.865,0,1.601,0.688,1.379,2.154
		c-0.111,0.799-1.801,6.174-0.4,6.174c0.711,0,1.178-0.865,1.422-1.464C280.968,95.242,281.301,95.332,281.5,95.332"/>
	<path fill="#5E5F5F" d="M284.48,97.662c-4.244,0.022-1.535-9.039,2.223-9.08C291.347,88.554,288.725,97.62,284.48,97.662
		 M287.08,89.376c-1.934,0-4.398,7.511-2.243,7.511C287.015,96.887,289.016,89.376,287.08,89.376"/>
	<path fill="#5E5F5F" d="M300.198,95.332c-0.4,1.133-1.177,2.4-2.534,2.336c-1.201-0.048-1.666-0.801-1.777-1.781
		c-0.734,1.046-1.715,1.781-2.758,1.781c-4.244,0-1.534-9.089,2.199-9.089c0.914,0,1.492,0.443,1.803,1.108
		c0.354-1.22,0.533-0.775,2.156-0.974c-0.046,0.133-0.135,0.399-0.178,0.533c-0.224,0.776-0.466,1.598-0.689,2.354
		c-0.289,0.976-1.556,5.307-0.268,5.307c0.713,0,1.179-0.865,1.424-1.464C299.665,95.242,299.999,95.332,300.198,95.332
		 M295.709,89.356c-1.958,0-4.381,7.53-2.247,7.53C295.709,96.887,297.643,89.356,295.709,89.356 M295.553,84.962
		c0.578,0.974,1.399,2.175,2.578,2.529c-0.354,0.269-0.313,0.313-0.734,0.246c-0.889-0.155-1.644-0.733-2.244-1.314
		C294.773,86.094,295.328,85.402,295.553,84.962"/>
	<path fill="#5E5F5F" d="M310.582,95.332c-0.401,1.133-1.201,2.4-2.557,2.336c-3.158-0.159-1.201-5.271-0.846-7
		c0.113-0.489-0.023-0.867-0.378-0.867c-1,0-2.423,2.377-3.134,3.688c-0.29,1.044-0.601,2.065-0.91,3.152
		c-0.335,1.113-0.957,0.802-2.225,0.96c0.845-2.734,1.578-5.335,2.356-7.976c0.333-1.156,0.666-0.735,2.177-0.911l-0.153,0.533
		c-0.177,0.621-0.401,1.309-0.579,1.931c0.848-1.31,1.98-2.599,3.223-2.599c0.846,0,1.58,0.688,1.358,2.18
		c-0.113,0.8-1.78,6.128-0.401,6.128c0.734,0,1.18-0.822,1.445-1.421C310.025,95.242,310.357,95.332,310.582,95.332"/>
	<path fill="#5E5F5F" d="M325.967,95.332c-0.401,1.133-1.18,2.4-2.535,2.336c-3.155-0.159-1.156-5.271-0.843-7
		c0.088-0.489-0.044-0.867-0.401-0.867c-1.022,0-2.488,2.485-3.156,3.777c-0.288,0.999-0.6,2.021-0.912,3.063
		c-0.333,1.113-0.933,0.802-2.199,0.96c1.179-3.888,2.178-7.489,3.333-11.421c0.333-1.135,0.934-0.799,2.225-0.952
		c-0.623,2.041-1.201,4.02-1.778,6.019c0.842-1.337,1.977-2.667,3.244-2.667c0.865,0,1.601,0.688,1.379,2.154
		c-0.111,0.799-1.802,6.174-0.402,6.174c0.713,0,1.179-0.865,1.424-1.464C325.433,95.242,325.768,95.332,325.967,95.332"/>
	<path fill="#5E5F5F" d="M336.014,95.332c-0.396,1.133-1.176,2.4-2.533,2.33c-1.2-0.042-1.667-0.795-1.756-1.796
		c-0.755,1.066-1.711,1.796-2.777,1.796c-4.246,0.022-1.534-9.08,2.223-9.08c0.891,0,1.465,0.44,1.779,1.108
		c0.355-1.222,0.531-0.778,2.156-0.977c-0.047,0.133-0.111,0.399-0.156,0.533c-0.245,0.776-0.488,1.598-0.713,2.331
		c-0.287,0.998-1.554,5.329-0.266,5.329c0.711,0,1.178-0.862,1.422-1.464C335.482,95.243,335.816,95.332,336.014,95.332
		 M331.527,89.356c-1.936,0-4.381,7.551-2.224,7.551C331.527,96.907,333.48,89.356,331.527,89.356 M334.949,85.802
		c-0.156,1.289-2.557,1.044-1.757,1.845c-0.354,0.202-0.646-0.11-0.667-0.333c-0.088-0.98,1.289-0.802,1.224-1.888
		c-0.022-0.355-0.179-0.512-0.623-0.533c-0.935-0.043-1.089,0.866-0.512,1.177c-0.511,0.399-1.112,0.134-1.132-0.402
		c0-0.798,0.91-1.195,1.822-1.173C334.171,84.494,335.037,85.045,334.949,85.802"/>
	<path fill="#5E5F5F" d="M338.996,97.662c-4.246,0.022-1.533-9.039,2.224-9.08C345.865,88.554,343.242,97.62,338.996,97.662
		 M341.598,89.376c-1.933,0-4.4,7.511-2.246,7.511C341.531,96.887,343.529,89.376,341.598,89.376"/>
</g>
</svg>
